<svg width="250" height="250" viewBox="0 0 250 250" fill="none" xmlns="http://www.w3.org/2000/svg">
<rect width="250" height="250" fill="#0021A5"/>
<path d="M160.486 162.528V133.418L187.309 133.419V114.225H160.486V87.0332H189.939V97.5832H209.365V68H131.582V87.0332H138.865V162.528H131.607V181.721H167.51V162.528H160.486Z" fill="white"/>
<path d="M122.493 138.743V87.0281H129.681V68H93.7017V87.0281H100.717V132.312C100.717 151.291 98.5238 160.413 84.894 160.413C71.2642 160.413 69.0709 151.291 69.0709 132.312V87.0281H76.0327V68H40V87.0281H47.1368V138.743C47.1368 150.037 47.1368 159.29 52.4635 167.605C58.4175 177.017 69.2268 183 84.894 183C112.624 183 122.493 168.546 122.493 138.743Z" fill="white"/>
</svg>
